<?xml version="1.0" standalone="no"?>
<!DOCTYPE svg PUBLIC "-//W3C//DTD SVG 20010904//EN"
 "http://www.w3.org/TR/2001/REC-SVG-20010904/DTD/svg10.dtd">
<svg version="1.0" xmlns="http://www.w3.org/2000/svg"
 width="152" height="64" viewBox="0 0 1220.000000 435.000000"
 preserveAspectRatio="xMidYMid meet">

<g transform="translate(0.000000,435.000000) scale(0.100000,-0.100000)"
fill="#D73B3B" stroke="none">
<path d="M1960 3515 c-207 -33 -476 -157 -625 -289 l-40 -35 90 -85 c50 -47
95 -85 101 -86 6 0 28 15 50 34 110 94 317 183 477 205 98 14 252 14 337 1
140 -22 315 -95 418 -174 30 -22 62 -47 71 -53 15 -11 30 -4 107 48 135 92
131 86 92 126 -48 50 -199 148 -303 198 -226 109 -519 150 -775 110z"/>
<path d="M980 3345 c-14 -37 4 -109 44 -175 51 -83 65 -125 80 -230 15 -104
35 -152 91 -221 82 -98 398 -419 442 -448 53 -35 96 -39 164 -16 26 9 56 13
74 9 39 -8 323 -287 518 -509 239 -272 289 -324 397 -419 159 -139 321 -246
465 -309 98 -43 145 -54 145 -35 0 30 -202 281 -325 404 -139 140 -236 225
-520 458 -324 267 -554 478 -580 533 -13 26 -15 49 -10 92 8 68 12 62 -135
187 -138 116 -296 261 -506 461 -94 90 -194 181 -223 203 -64 48 -106 53 -121
15z m518 -494 c64 -54 142 -124 172 -155 51 -53 53 -57 37 -73 -16 -17 -22
-12 -115 82 -107 110 -227 245 -218 245 3 0 59 -45 124 -99z m24 -165 c133
-121 151 -146 101 -146 -22 0 -50 23 -136 113 -60 61 -129 138 -153 170 l-45
58 62 -48 c34 -26 111 -92 171 -147z m-175 6 c32 -27 98 -86 146 -132 70 -66
85 -85 76 -96 -6 -8 -16 -14 -21 -14 -15 0 -165 148 -212 210 -75 97 -73 102
11 32z"/>
<path d="M3410 3361 c0 -5 -66 -53 -147 -107 -82 -54 -201 -133 -265 -176
-184 -121 -624 -476 -671 -540 -17 -23 -19 -34 -11 -75 5 -26 8 -58 6 -71 -2
-13 -36 -57 -75 -99 l-71 -75 47 -45 48 -45 58 55 c32 31 69 59 82 62 14 3 55
-5 98 -20 94 -32 107 -31 162 3 123 79 331 356 544 727 146 254 226 415 205
415 -6 0 -10 -4 -10 -9z"/>
<path d="M10680 3075 l0 -165 195 0 195 0 0 165 0 165 -195 0 -195 0 0 -165z"/>
<path d="M5475 3094 c-152 -37 -243 -138 -298 -332 -21 -75 -21 -94 -22 -662
0 -631 1 -638 54 -750 97 -205 360 -289 637 -206 68 21 155 85 193 143 64 96
74 150 79 431 l4 252 -196 0 -196 0 0 -182 c-1 -198 -9 -260 -42 -295 -23 -25
-66 -30 -100 -12 -47 25 -48 43 -48 622 0 300 3 558 6 575 10 52 39 73 91 70
37 -2 50 -9 67 -31 19 -26 21 -44 24 -218 l4 -189 190 0 190 0 -4 243 -3 242
-32 67 c-17 37 -50 87 -74 113 -48 52 -152 107 -237 124 -72 15 -214 12 -287
-5z"/>
<path d="M9350 2915 l0 -175 -55 0 -55 0 0 -150 0 -150 55 0 54 0 3 -582 3
-583 26 -50 c14 -27 39 -59 56 -71 67 -45 216 -55 364 -23 l49 11 0 134 0 134
-43 0 c-24 0 -48 5 -55 12 -9 9 -12 137 -12 515 l0 503 55 0 55 0 0 150 0 150
-55 0 -55 0 0 175 0 175 -195 0 -195 0 0 -175z"/>
<path d="M10050 2915 l0 -175 -55 0 -55 0 0 -150 0 -150 55 0 54 0 3 -583 3
-583 26 -49 c14 -28 39 -59 56 -71 67 -45 216 -55 364 -23 l49 11 0 134 0 134
-44 0 c-28 0 -48 6 -57 17 -12 13 -14 106 -14 512 l0 496 58 3 57 3 0 149 0
150 -60 0 -60 0 0 175 0 175 -190 0 -190 0 0 -175z"/>
<path d="M3198 2854 c-99 -163 -96 -146 -55 -256 60 -158 80 -279 74 -443 -4
-112 -10 -158 -32 -230 -34 -115 -99 -253 -158 -331 l-45 -62 100 -106 c55
-58 103 -106 108 -106 16 0 118 151 170 250 70 138 96 210 125 356 42 208 33
423 -27 647 -22 82 -130 312 -170 361 l-24 28 -66 -108z"/>
<path d="M973 2773 c-88 -186 -121 -321 -130 -533 -11 -291 62 -551 228 -811
27 -42 58 -84 69 -94 20 -18 21 -18 44 6 12 13 57 61 100 106 l77 83 -39 57
c-196 288 -244 641 -132 962 25 70 28 88 17 102 -6 9 -41 53 -77 96 -36 44
-74 92 -85 107 l-20 28 -52 -109z"/>
<path d="M6586 2804 c-173 -37 -279 -131 -329 -289 -21 -68 -22 -83 -21 -520
0 -382 3 -461 17 -523 53 -236 177 -343 412 -358 239 -16 411 58 484 209 39
79 59 174 67 326 l7 121 -201 0 -201 0 -3 -144 c-3 -129 -5 -148 -24 -173 -18
-24 -28 -28 -70 -28 -44 0 -49 3 -68 35 -19 32 -21 55 -24 253 l-4 217 290 0
289 0 7 61 c9 93 7 375 -4 454 -17 118 -46 182 -114 251 -45 45 -76 66 -121
82 -117 44 -261 53 -389 26z m177 -285 c46 -21 52 -43 55 -221 l4 -168 -96 0
-96 0 0 143 c0 170 9 211 53 237 37 23 47 24 80 9z"/>
<path d="M7944 2804 c-58 -21 -118 -75 -148 -136 l-26 -52 0 92 0 92 -200 0
-200 0 0 -835 0 -835 200 0 200 0 0 645 0 645 26 16 c34 23 114 44 197 51 l67
6 0 163 0 164 -37 -1 c-21 0 -57 -7 -79 -15z"/>
<path d="M8545 2813 c-206 -27 -349 -155 -385 -343 -13 -68 -13 -862 0 -955 6
-38 22 -104 37 -145 22 -61 38 -86 87 -136 93 -94 215 -131 396 -120 166 10
251 45 333 136 76 84 117 234 117 428 l0 92 -194 0 -193 0 -6 -132 c-7 -185
-22 -218 -99 -218 -42 0 -51 7 -73 50 -16 30 -19 62 -19 245 l-1 210 293 3
292 2 0 248 c0 279 -10 346 -61 443 -53 100 -135 154 -276 184 -63 14 -178 17
-248 8z m129 -293 c48 -18 59 -60 64 -232 l4 -158 -101 0 -101 0 0 133 c1 161
9 203 50 240 33 29 45 32 84 17z"/>
<path d="M11565 2806 c-159 -33 -266 -111 -323 -234 -47 -103 -41 -296 13
-402 36 -72 96 -130 285 -278 101 -79 187 -155 205 -180 28 -42 30 -49 30
-142 0 -124 -12 -142 -89 -138 -73 4 -86 33 -86 191 l0 117 -201 0 -202 0 6
-132 c8 -191 42 -291 126 -374 76 -75 175 -111 331 -120 161 -10 303 32 396
118 98 91 137 189 137 353 1 124 -17 207 -61 289 -40 76 -169 199 -327 313
-77 56 -150 112 -162 125 -48 52 -50 163 -3 188 30 16 85 12 103 -8 18 -20 36
-91 37 -144 l0 -38 206 0 207 0 -8 82 c-12 143 -58 253 -132 318 -106 93 -308
133 -488 96z"/>
<path d="M10680 1965 l0 -835 195 0 195 0 0 835 0 835 -195 0 -195 0 0 -835z"/>
<path d="M1899 1947 c-75 -61 -158 -130 -185 -152 -232 -190 -485 -430 -607
-576 -65 -79 -157 -213 -157 -230 0 -53 371 149 550 299 87 73 180 173 348
372 86 102 182 215 215 252 l59 67 -34 41 c-18 22 -37 40 -43 40 -5 0 -71 -51
-146 -113z"/>
<path d="M1412 1194 l-93 -63 63 -47 c86 -63 133 -89 257 -145 256 -114 548
-142 830 -79 185 41 393 140 519 247 l33 28 -82 55 c-46 30 -88 59 -94 64 -7
5 -33 -6 -71 -32 -165 -112 -350 -171 -565 -179 -153 -6 -239 7 -394 58 -98
33 -240 106 -269 138 -11 12 -24 21 -30 20 -6 0 -53 -30 -104 -65z"/>
</g>
</svg>
